BoPoMoFont_2025-06-30.ufo
<glyph name="period" format="2">
  <advance width="296"/>
  <unicode hex="002E"/>
  <outline>
    <contour>
      <point x="67" y="41"/>
      <point x="67" y="109"/>
      <point x="114" y="157"/>
      <point x="182" y="157"/>
      <point x="230" y="109"/>
      <point x="230" y="41"/>
      <point x="182" y="-6"/>
      <point x="114" y="-6"/>
    </contour>
  </outline>
</glyph>
<glyph name="B" format="2">
  <advance width="607"/>
  <unicode hex="0042"/>
  <outline>
    <contour>
      <point x="85" y="709" type="line"/>
      <point x="329" y="709" type="line"/>
      <point x="429" y="709"/>
      <point x="545" y="603"/>
      <point x="545" y="518" type="qcurve"/>
      <point x="545" y="463"/>
      <point x="487" y="382"/>
      <point x="440" y="365" type="qcurve"/>
      <point x="497" y="350"/>
      <point x="567" y="258"/>
      <point x="567" y="196" type="qcurve"/>
      <point x="567" y="110"/>
      <point x="445" y="0"/>
      <point x="347" y="0" type="qcurve"/>
      <point x="85" y="0" type="line"/>
    </contour>
    <contour>
      <point x="204" y="409" type="line"/>
      <point x="313" y="409" type="line"/>
      <point x="365" y="409"/>
      <point x="425" y="463"/>
      <point x="425" y="508" type="qcurve"/>
      <point x="425" y="554"/>
      <point x="364" y="607"/>
      <point x="310" y="607" type="qcurve"/>
      <point x="204" y="607" type="line"/>
    </contour>
    <contour>
      <point x="204" y="102" type="line"/>
      <point x="326" y="102" type="line"/>
      <point x="380" y="102"/>
      <point x="445" y="157"/>
      <point x="445" y="251"/>
      <point x="384" y="308"/>
      <point x="330" y="308" type="qcurve"/>
      <point x="204" y="308" type="line"/>
    </contour>
  </outline>
</glyph>
<glyph name="C" format="2">
  <advance width="728"/>
  <unicode hex="0043"/>
  <outline>
    <contour>
      <point x="430" y="-10" type="curve" smooth="yes"/>
      <point x="532" y="-10"/>
      <point x="626" y="32"/>
      <point x="694" y="100" type="curve"/>
      <point x="616" y="178" type="line"/>
      <point x="570" y="128"/>
      <point x="504" y="96"/>
      <point x="430" y="96" type="curve" smooth="yes"/>
      <point x="282" y="96"/>
      <point x="172" y="216"/>
      <point x="172" y="364" type="curve" smooth="yes"/>
      <point x="172" y="512"/>
      <point x="282" y="632"/>
      <point x="430" y="632" type="curve" smooth="yes"/>
      <point x="506" y="632"/>
      <point x="570" y="602"/>
      <point x="616" y="552" type="curve"/>
      <point x="696" y="632" type="line"/>
      <point x="630" y="696"/>
      <point x="540" y="738"/>
      <point x="430" y="738" type="curve" smooth="yes"/>
      <point x="224" y="738"/>
      <point x="52" y="570"/>
      <point x="52" y="364" type="curve" smooth="yes"/>
      <point x="52" y="142"/>
      <point x="208" y="-10"/>
    </contour>
  </outline>
</glyph>
<glyph name="D" format="2">
  <advance width="722"/>
  <unicode hex="0044"/>
  <outline>
    <contour>
      <point x="205" y="110" type="line"/>
      <point x="331" y="110" type="line"/>
      <point x="429" y="110"/>
      <point x="556" y="235"/>
      <point x="556" y="353" type="qcurve"/>
      <point x="556" y="472"/>
      <point x="430" y="599"/>
      <point x="332" y="599" type="qcurve"/>
      <point x="205" y="599" type="line"/>
    </contour>
    <contour>
      <point x="335" y="0" type="qcurve"/>
      <point x="85" y="0" type="line"/>
      <point x="85" y="709" type="line"/>
      <point x="336" y="709" type="line"/>
      <point x="486" y="709"/>
      <point x="681" y="519"/>
      <point x="681" y="353" type="qcurve"/>
      <point x="681" y="188"/>
      <point x="485" y="0"/>
    </contour>
  </outline>
</glyph>
<glyph name="E" format="2">
  <advance width="764"/>
  <unicode hex="0045"/>
  <outline>
    <contour>
      <point x="68" y="0" type="line"/>
      <point x="651" y="0" type="line"/>
      <point x="651" y="104" type="line"/>
      <point x="186" y="104" type="line"/>
      <point x="186" y="312" type="line"/>
      <point x="643" y="312" type="line"/>
      <point x="643" y="416" type="line"/>
      <point x="186" y="416" type="line"/>
      <point x="186" y="624" type="line"/>
      <point x="651" y="624" type="line"/>
      <point x="651" y="728" type="line"/>
      <point x="68" y="728" type="line"/>
    </contour>
  </outline>
</glyph>
<glyph name="F" format="2">
  <advance width="557"/>
  <unicode hex="0046"/>
  <outline>
    <contour>
      <point x="205" y="0" type="line"/>
      <point x="85" y="0" type="line"/>
      <point x="85" y="709" type="line"/>
      <point x="526" y="709" type="line"/>
      <point x="526" y="596" type="line"/>
      <point x="205" y="596" type="line"/>
      <point x="205" y="397" type="line"/>
      <point x="493" y="397" type="line"/>
      <point x="493" y="286" type="line"/>
      <point x="205" y="286" type="line"/>
    </contour>
  </outline>
</glyph>
<glyph name="G" format="2">
  <advance width="834"/>
  <unicode hex="0047"/>
  <outline>
    <contour>
      <point x="724" y="359" type="qcurve"/>
      <point x="367" y="359" type="line"/>
      <point x="367" y="254" type="line"/>
      <point x="601" y="254" type="line"/>
      <point x="595" y="196"/>
      <point x="494" y="95"/>
      <point x="398" y="95" type="qcurve" smooth="yes"/>
      <point x="300" y="95"/>
      <point x="164" y="232"/>
      <point x="164" y="355" type="qcurve" smooth="yes"/>
      <point x="164" y="479"/>
      <point x="304" y="613"/>
      <point x="399" y="613" type="qcurve" smooth="yes"/>
      <point x="479" y="613"/>
      <point x="587" y="529"/>
      <point x="606" y="465" type="qcurve"/>
      <point x="719" y="508" type="line"/>
      <point x="689" y="602"/>
      <point x="522" y="724"/>
      <point x="399" y="724" type="qcurve" smooth="yes"/>
      <point x="305" y="724"/>
      <point x="145" y="639"/>
      <point x="42" y="467"/>
      <point x="42" y="355" type="qcurve" smooth="yes"/>
      <point x="42" y="186"/>
      <point x="246" y="-15"/>
      <point x="391" y="-15" type="qcurve" smooth="yes"/>
      <point x="529" y="-15"/>
      <point x="626" y="84" type="qcurve"/>
      <point x="626" y="83" type="line" smooth="yes"/>
      <point x="626" y="32"/>
      <point x="717" y="0"/>
      <point x="765" y="0" type="curve" smooth="yes"/>
      <point x="779" y="0" type="line"/>
      <point x="779" y="104" type="line"/>
      <point x="775" y="104" type="line" smooth="yes"/>
      <point x="743" y="104"/>
      <point x="723" y="126"/>
      <point x="723" y="156" type="curve" smooth="yes"/>
      <point x="723" y="324" type="line"/>
      <point x="724" y="341"/>
    </contour>
    <contour>
      <point x="626" y="84" type="line"/>
      <point x="723" y="358" type="line"/>
      <point x="626" y="84" type="line"/>
    </contour>
  </outline>
</glyph>
<glyph name="H" format="2">
  <advance width="744"/>
  <unicode hex="0048"/>
  <outline>
    <contour>
      <point x="659" y="0" type="line"/>
      <point x="538" y="0" type="line"/>
      <point x="538" y="303" type="line"/>
      <point x="205" y="303" type="line"/>
      <point x="205" y="0" type="line"/>
      <point x="85" y="0" type="line"/>
      <point x="85" y="709" type="line"/>
      <point x="205" y="709" type="line"/>
      <point x="205" y="416" type="line"/>
      <point x="538" y="416" type="line"/>
      <point x="538" y="709" type="line"/>
      <point x="659" y="709" type="line"/>
    </contour>
  </outline>
</glyph>
<glyph name="I" format="2">
  <advance width="292"/>
  <unicode hex="0049"/>
  <outline>
    <contour>
      <point x="207" y="0" type="line"/>
      <point x="85" y="0" type="line"/>
      <point x="85" y="709" type="line"/>
      <point x="207" y="709" type="line"/>
    </contour>
  </outline>
</glyph>
<glyph name="K" format="2">
  <advance width="600"/>
  <unicode hex="004B"/>
  <outline>
    <contour>
      <point x="46" y="728" type="line"/>
      <point x="46" y="0" type="line"/>
      <point x="164" y="0" type="line"/>
      <point x="164" y="344" type="line"/>
      <point x="218" y="344" type="line" smooth="yes"/>
      <point x="332" y="344"/>
      <point x="448" y="276"/>
      <point x="448" y="160" type="curve" smooth="yes"/>
      <point x="448" y="0" type="line"/>
      <point x="564" y="0" type="line"/>
      <point x="564" y="158" type="line" smooth="yes"/>
      <point x="564" y="268"/>
      <point x="518" y="336"/>
      <point x="444" y="390" type="curve"/>
      <point x="580" y="728" type="line"/>
      <point x="448" y="728" type="line"/>
      <point x="334" y="440" type="line"/>
      <point x="308" y="446"/>
      <point x="250" y="450"/>
      <point x="222" y="450" type="curve" smooth="yes"/>
      <point x="164" y="450" type="line"/>
      <point x="164" y="728" type="line"/>
    </contour>
  </outline>
</glyph>
<glyph name="O" format="2">
  <advance width="858"/>
  <unicode hex="004F"/>
  <outline>
    <contour>
      <point x="430" y="-10" type="curve" smooth="yes"/>
      <point x="634" y="-10"/>
      <point x="806" y="160"/>
      <point x="806" y="364" type="curve" smooth="yes"/>
      <point x="806" y="586"/>
      <point x="652" y="738"/>
      <point x="430" y="738" type="curve" smooth="yes"/>
      <point x="224" y="738"/>
      <point x="52" y="570"/>
      <point x="52" y="364" type="curve" smooth="yes"/>
      <point x="52" y="142"/>
      <point x="208" y="-10"/>
    </contour>
    <contour>
      <point x="430" y="96" type="curve" smooth="yes"/>
      <point x="282" y="96"/>
      <point x="172" y="216"/>
      <point x="172" y="364" type="curve" smooth="yes"/>
      <point x="172" y="512"/>
      <point x="282" y="632"/>
      <point x="430" y="632" type="curve" smooth="yes"/>
      <point x="578" y="632"/>
      <point x="686" y="512"/>
      <point x="686" y="364" type="curve" smooth="yes"/>
      <point x="686" y="216"/>
      <point x="578" y="96"/>
    </contour>
  </outline>
</glyph>
<glyph name="Q" format="2">
  <advance width="897"/>
  <unicode hex="0051"/>
  <outline>
    <contour>
      <point x="396" y="-170" type="line"/>
      <point x="507" y="-170" type="line"/>
      <point x="507" y="-15" type="line"/>
      <point x="691" y="19"/>
      <point x="820" y="178"/>
      <point x="820" y="349" type="curve" smooth="yes"/>
      <point x="820" y="541"/>
      <point x="679" y="720"/>
      <point x="452" y="720" type="curve" smooth="yes"/>
      <point x="223" y="720"/>
      <point x="82" y="541"/>
      <point x="82" y="349" type="curve" smooth="yes"/>
      <point x="82" y="178"/>
      <point x="213" y="19"/>
      <point x="396" y="-15" type="curve"/>
    </contour>
    <contour>
      <point x="452" y="94" type="curve" smooth="yes"/>
      <point x="311" y="94"/>
      <point x="205" y="203"/>
      <point x="205" y="349" type="curve" smooth="yes"/>
      <point x="205" y="495"/>
      <point x="311" y="604"/>
      <point x="452" y="604" type="curve" smooth="yes"/>
      <point x="592" y="604"/>
      <point x="697" y="495"/>
      <point x="697" y="349" type="curve" smooth="yes"/>
      <point x="697" y="203"/>
      <point x="592" y="94"/>
    </contour>
  </outline>
</glyph>
<glyph name="R" format="2">
  <advance width="748"/>
  <unicode hex="0052"/>
  <outline>
    <contour>
      <point x="68" y="0" type="line"/>
      <point x="186" y="0" type="line"/>
      <point x="186" y="312" type="line"/>
      <point x="187" y="312" type="line"/>
      <point x="183" y="312" type="line"/>
      <point x="344" y="312" type="line"/>
      <point x="474" y="0" type="line"/>
      <point x="596" y="0" type="line"/>
      <point x="462" y="324" type="line"/>
      <point x="544" y="354"/>
      <point x="596" y="432"/>
      <point x="596" y="520" type="curve" smooth="yes"/>
      <point x="596" y="634"/>
      <point x="512" y="728"/>
      <point x="386" y="728" type="curve" smooth="yes"/>
      <point x="183" y="728" type="line"/>
      <point x="187" y="728" type="line"/>
      <point x="68" y="728" type="line"/>
    </contour>
    <contour>
      <point x="186" y="416" type="line"/>
      <point x="186" y="624" type="line"/>
      <point x="187" y="624" type="line"/>
      <point x="183" y="624" type="line"/>
      <point x="374" y="624" type="line" smooth="yes"/>
      <point x="436" y="624"/>
      <point x="478" y="582"/>
      <point x="478" y="520" type="curve" smooth="yes"/>
      <point x="478" y="458"/>
      <point x="436" y="416"/>
      <point x="374" y="416" type="curve" smooth="yes"/>
      <point x="183" y="416" type="line"/>
      <point x="187" y="416" type="line"/>
    </contour>
  </outline>
</glyph>
<glyph name="T" format="2">
  <advance width="607"/>
  <unicode hex="0054"/>
  <outline>
    <contour>
      <point x="594" y="596" type="line"/>
      <point x="363" y="596" type="line"/>
      <point x="363" y="0" type="line"/>
      <point x="243" y="0" type="line"/>
      <point x="243" y="596" type="line"/>
      <point x="13" y="596" type="line"/>
      <point x="13" y="709" type="line"/>
      <point x="594" y="709" type="line"/>
    </contour>
  </outline>
</glyph>
<glyph name="U" format="2">
  <advance width="683"/>
  <unicode hex="0055"/>
  <outline>
    <contour>
      <point x="606" y="123"/>
      <point x="457" y="-15"/>
      <point x="225" y="-15"/>
      <point x="77" y="123"/>
      <point x="77" y="247" type="qcurve"/>
      <point x="77" y="709" type="line"/>
      <point x="196" y="709" type="line"/>
      <point x="196" y="254" type="line"/>
      <point x="196" y="180"/>
      <point x="273" y="99"/>
      <point x="341" y="99" type="qcurve"/>
      <point x="410" y="99"/>
      <point x="486" y="179"/>
      <point x="486" y="254" type="qcurve"/>
      <point x="486" y="709" type="line"/>
      <point x="606" y="709" type="line"/>
      <point x="606" y="247" type="line"/>
    </contour>
  </outline>
</glyph>
<glyph name="V" format="2">
  <advance width="674"/>
  <unicode hex="0056"/>
  <outline>
    <contour>
      <point x="338" y="157" type="line"/>
      <point x="537" y="709" type="line"/>
      <point x="664" y="709" type="line"/>
      <point x="396" y="0" type="line"/>
      <point x="274" y="0" type="line"/>
      <point x="10" y="709" type="line"/>
      <point x="140" y="709" type="line"/>
    </contour>
  </outline>
</glyph>
<glyph name="Y" format="2">
  <advance width="638"/>
  <unicode hex="0059"/>
  <outline>
    <contour>
      <point x="258" y="300" type="line"/>
      <point x="10" y="709" type="line"/>
      <point x="152" y="709" type="line"/>
      <point x="322" y="412" type="line"/>
      <point x="493" y="709" type="line"/>
      <point x="628" y="709" type="line"/>
      <point x="378" y="300" type="line"/>
      <point x="378" y="0" type="line"/>
      <point x="258" y="0" type="line"/>
    </contour>
  </outline>
</glyph>
<glyph name="e" format="2">
  <advance width="508"/>
  <unicode hex="0065"/>
  <outline>
    <contour>
      <point x="263" y="-9" type="curve" smooth="yes"/>
      <point x="349" y="-9"/>
      <point x="408" y="27"/>
      <point x="451" y="73" type="curve"/>
      <point x="371" y="139" type="line"/>
      <point x="341" y="107"/>
      <point x="314" y="90"/>
      <point x="264" y="90" type="curve" smooth="yes"/>
      <point x="210" y="90"/>
      <point x="167" y="122"/>
      <point x="154" y="173" type="curve"/>
      <point x="463" y="173" type="line"/>
      <point x="464" y="188"/>
      <point x="464" y="189"/>
      <point x="464" y="216" type="curve" smooth="yes"/>
      <point x="464" y="330"/>
      <point x="381" y="425"/>
      <point x="256" y="425" type="curve" smooth="yes"/>
      <point x="130" y="425"/>
      <point x="44" y="332"/>
      <point x="44" y="209" type="curve" smooth="yes"/>
      <point x="44" y="73"/>
      <point x="137" y="-9"/>
    </contour>
    <contour>
      <point x="256" y="330" type="curve" smooth="yes"/>
      <point x="308" y="330"/>
      <point x="338" y="296"/>
      <point x="349" y="256" type="curve"/>
      <point x="157" y="256" type="line"/>
      <point x="171" y="299"/>
      <point x="206" y="330"/>
    </contour>
  </outline>
</glyph>
<glyph name="h" format="2">
  <advance width="584"/>
  <unicode hex="0068"/>
  <outline>
    <contour>
      <point x="72" y="0" type="line"/>
      <point x="184" y="0" type="line"/>
      <point x="184" y="208" type="line" smooth="yes"/>
      <point x="184" y="274"/>
      <point x="232" y="322"/>
      <point x="296" y="322" type="curve" smooth="yes"/>
      <point x="362" y="322"/>
      <point x="408" y="274"/>
      <point x="408" y="208" type="curve" smooth="yes"/>
      <point x="408" y="0" type="line"/>
      <point x="520" y="0" type="line"/>
      <point x="520" y="208" type="line" smooth="yes"/>
      <point x="520" y="338"/>
      <point x="432" y="426"/>
      <point x="306" y="426" type="curve" smooth="yes"/>
      <point x="254" y="426"/>
      <point x="208" y="408"/>
      <point x="184" y="380" type="curve"/>
      <point x="184" y="728" type="line"/>
      <point x="72" y="728" type="line"/>
    </contour>
  </outline>
</glyph>
<glyph name="j" format="2">
  <advance width="226"/>
  <unicode hex="006A"/>
  <outline>
    <contour>
      <point x="100" y="530" type="curve" smooth="yes"/>
      <point x="138" y="530"/>
      <point x="168" y="562"/>
      <point x="168" y="600" type="curve" smooth="yes"/>
      <point x="168" y="638"/>
      <point x="138" y="668"/>
      <point x="100" y="668" type="curve" smooth="yes"/>
      <point x="62" y="668"/>
      <point x="30" y="638"/>
      <point x="30" y="600" type="curve" smooth="yes"/>
      <point x="30" y="562"/>
      <point x="62" y="530"/>
    </contour>
    <contour>
      <point x="-20" y="-208" type="line"/>
      <point x="-2" y="-208" type="line" smooth="yes"/>
      <point x="88" y="-208"/>
      <point x="154" y="-144"/>
      <point x="154" y="-52" type="curve" smooth="yes"/>
      <point x="154" y="416" type="line"/>
      <point x="42" y="416" type="line"/>
      <point x="42" y="-52" type="line" smooth="yes"/>
      <point x="42" y="-84"/>
      <point x="20" y="-104"/>
      <point x="-10" y="-104" type="curve" smooth="yes"/>
      <point x="-20" y="-104" type="line"/>
    </contour>
  </outline>
</glyph>
<glyph name="n" format="2">
  <advance width="610"/>
  <unicode hex="006E"/>
  <outline>
    <contour>
      <point x="116" y="0" type="line"/>
      <point x="228" y="0" type="line"/>
      <point x="228" y="208" type="line" smooth="yes"/>
      <point x="228" y="274"/>
      <point x="266" y="322"/>
      <point x="330" y="322" type="curve" smooth="yes"/>
      <point x="396" y="322"/>
      <point x="432" y="274"/>
      <point x="432" y="208" type="curve" smooth="yes"/>
      <point x="432" y="0" type="line"/>
      <point x="544" y="0" type="line"/>
      <point x="544" y="208" type="line" smooth="yes"/>
      <point x="544" y="338"/>
      <point x="462" y="426"/>
      <point x="332" y="426" type="curve" smooth="yes"/>
      <point x="218" y="426"/>
      <point x="116" y="338"/>
      <point x="116" y="208" type="curve" smooth="yes"/>
    </contour>
    <contour>
      <point x="188" y="366" type="line"/>
      <point x="162" y="398"/>
      <point x="122" y="416"/>
      <point x="74" y="416" type="curve" smooth="yes"/>
      <point x="60" y="416" type="line"/>
      <point x="60" y="312" type="line"/>
      <point x="64" y="312" type="line" smooth="yes"/>
      <point x="96" y="312"/>
      <point x="116" y="290"/>
      <point x="116" y="260" type="curve" smooth="yes"/>
      <point x="116" y="0" type="line"/>
      <point x="196" y="0" type="line"/>
      <point x="196" y="36" type="line"/>
    </contour>
  </outline>
</glyph>
<glyph name="q" format="2">
  <advance width="536"/>
  <unicode hex="0071"/>
  <outline>
    <contour>
      <point x="380" y="-208" type="line"/>
      <point x="492" y="-208" type="line"/>
      <point x="492" y="208" type="line" smooth="yes"/>
      <point x="492" y="338"/>
      <point x="398" y="426"/>
      <point x="268" y="426" type="curve" smooth="yes"/>
      <point x="148" y="426"/>
      <point x="44" y="328"/>
      <point x="44" y="208" type="curve" smooth="yes"/>
      <point x="44" y="78"/>
      <point x="132" y="-10"/>
      <point x="258" y="-10" type="curve" smooth="yes"/>
      <point x="310" y="-10"/>
      <point x="356" y="8"/>
      <point x="380" y="36" type="curve"/>
    </contour>
    <contour>
      <point x="268" y="94" type="curve" smooth="yes"/>
      <point x="204" y="94"/>
      <point x="156" y="144"/>
      <point x="156" y="208" type="curve" smooth="yes"/>
      <point x="156" y="274"/>
      <point x="204" y="322"/>
      <point x="268" y="322" type="curve" smooth="yes"/>
      <point x="334" y="322"/>
      <point x="380" y="274"/>
      <point x="380" y="208" type="curve" smooth="yes"/>
      <point x="380" y="144"/>
      <point x="334" y="94"/>
    </contour>
  </outline>
</glyph>
<glyph name="u" format="2">
  <advance width="576"/>
  <unicode hex="0075"/>
  <outline>
    <contour>
      <point x="500" y="426" type="line"/>
      <point x="388" y="426" type="line"/>
      <point x="388" y="218" type="line" smooth="yes"/>
      <point x="388" y="152"/>
      <point x="350" y="104"/>
      <point x="286" y="104" type="curve" smooth="yes"/>
      <point x="220" y="104"/>
      <point x="184" y="152"/>
      <point x="184" y="218" type="curve" smooth="yes"/>
      <point x="184" y="426" type="line"/>
      <point x="72" y="426" type="line"/>
      <point x="72" y="218" type="line" smooth="yes"/>
      <point x="72" y="88"/>
      <point x="154" y="0"/>
      <point x="284" y="0" type="curve" smooth="yes"/>
      <point x="398" y="0"/>
      <point x="500" y="88"/>
      <point x="500" y="218" type="curve" smooth="yes"/>
    </contour>
    <contour>
      <point x="428" y="60" type="line"/>
      <point x="454" y="28"/>
      <point x="494" y="10"/>
      <point x="542" y="10" type="curve" smooth="yes"/>
      <point x="556" y="10" type="line"/>
      <point x="556" y="114" type="line"/>
      <point x="552" y="114" type="line" smooth="yes"/>
      <point x="520" y="114"/>
      <point x="500" y="136"/>
      <point x="500" y="166" type="curve" smooth="yes"/>
      <point x="500" y="426" type="line"/>
      <point x="420" y="426" type="line"/>
      <point x="420" y="390" type="line"/>
    </contour>
  </outline>
</glyph>
<glyph name="w" format="2">
  <advance width="740"/>
  <unicode hex="0077"/>
  <outline>
    <contour>
      <point x="322" y="416" type="line"/>
      <point x="425" y="416" type="line"/>
      <point x="523" y="128" type="line"/>
      <point x="606" y="416" type="line"/>
      <point x="707" y="416" type="line"/>
      <point x="573" y="0" type="line"/>
      <point x="474" y="0" type="line"/>
      <point x="371" y="299" type="line"/>
      <point x="270" y="0" type="line"/>
      <point x="168" y="0" type="line"/>
      <point x="33" y="416" type="line"/>
      <point x="139" y="416" type="line"/>
      <point x="224" y="128" type="line"/>
    </contour>
  </outline>
</glyph>
<glyph name="y" format="2">
  <advance width="430"/>
  <unicode hex="0079"/>
  <outline>
    <contour>
      <point x="314" y="443" type="line"/>
      <point x="314" y="198" type="line" smooth="yes"/>
      <point x="314" y="144"/>
      <point x="269" y="100"/>
      <point x="216" y="100" type="curve" smooth="yes"/>
      <point x="161" y="100"/>
      <point x="117" y="144"/>
      <point x="117" y="198" type="curve" smooth="yes"/>
      <point x="117" y="443" type="line"/>
      <point x="8" y="443" type="line"/>
      <point x="8" y="198" type="line" smooth="yes"/>
      <point x="8" y="83"/>
      <point x="110" y="1"/>
      <point x="215" y="1" type="curve" smooth="yes"/>
      <point x="254" y="1"/>
      <point x="290" y="3"/>
      <point x="314" y="26" type="curve"/>
      <point x="314" y="-5" type="line"/>
      <point x="423" y="-5" type="line"/>
      <point x="423" y="443" type="line"/>
    </contour>
    <contour>
      <point x="200" y="-218" type="curve" smooth="yes"/>
      <point x="320" y="-218"/>
      <point x="423" y="-131"/>
      <point x="424" y="-1" type="curve" smooth="yes"/>
      <point x="424" y="-1"/>
      <point x="424" y="0"/>
      <point x="424" y="0" type="curve" smooth="yes"/>
      <point x="424" y="1"/>
      <point x="424" y="2"/>
      <point x="424" y="2" type="curve"/>
      <point x="313" y="-1" type="line"/>
      <point x="313" y="-1"/>
      <point x="314" y="0"/>
      <point x="314" y="0" type="curve" smooth="yes"/>
      <point x="314" y="0"/>
      <point x="314" y="-1"/>
      <point x="314" y="-1" type="curve" smooth="yes"/>
      <point x="313" y="-69"/>
      <point x="268" y="-120"/>
      <point x="200" y="-120" type="curve" smooth="yes"/>
      <point x="132" y="-120"/>
      <point x="86" y="-72"/>
      <point x="86" y="-4" type="curve"/>
      <point x="-20" y="-4" type="line"/>
      <point x="-20" y="-136"/>
      <point x="68" y="-218"/>
    </contour>
    <contour>
      <point x="424" y="0" type="move"/>
    </contour>
    <contour>
      <point x="344" y="1" type="line"/>
      <point x="424" y="1" type="line"/>
    </contour>
  </outline>
</glyph>
<glyph name="periodcentered" format="2">
  <advance width="284"/>
  <unicode hex="00B7"/>
  <outline>
    <contour>
      <point x="65" y="298" type="qcurve"/>
      <point x="65" y="330"/>
      <point x="111" y="376"/>
      <point x="143" y="376" type="qcurve"/>
      <point x="176" y="376"/>
      <point x="222" y="330"/>
      <point x="222" y="298" type="qcurve"/>
      <point x="222" y="265"/>
      <point x="176" y="221"/>
      <point x="110" y="221"/>
      <point x="65" y="265"/>
    </contour>
  </outline>
</glyph>
<glyph name="b-bopomofo" format="2">
  <advance height="1000" width="1000"/>
  <unicode hex="3105"/>
  <note>
uni3105
</note>
  <outline>
    <contour>
      <point x="265" y="462" type="line" smooth="yes"/>
      <point x="242" y="462"/>
      <point x="242" y="476" type="qcurve" smooth="yes"/>
      <point x="242" y="478"/>
      <point x="244" y="486" type="qcurve" smooth="yes"/>
      <point x="295" y="661" type="line"/>
      <point x="309" y="693"/>
      <point x="284" y="729"/>
      <point x="261" y="728" type="qcurve" smooth="yes"/>
      <point x="235" y="728"/>
      <point x="222" y="685" type="qcurve" smooth="yes"/>
      <point x="159" y="472" type="line" smooth="yes"/>
      <point x="153" y="452"/>
      <point x="153" y="439" type="qcurve" smooth="yes"/>
      <point x="153" y="387"/>
      <point x="231" y="387" type="qcurve" smooth="yes"/>
      <point x="733" y="387" type="line" smooth="yes"/>
      <point x="757" y="387"/>
      <point x="769" y="367"/>
      <point x="769" y="346" type="qcurve" smooth="yes"/>
      <point x="769" y="298"/>
      <point x="742" y="144" type="qcurve" smooth="yes"/>
      <point x="717" y="-9"/>
      <point x="672" y="-38" type="qcurve" smooth="yes"/>
      <point x="628" y="-67"/>
      <point x="569" y="-67" type="qcurve" smooth="yes"/>
      <point x="509" y="-67"/>
      <point x="392" y="-18" type="qcurve" smooth="yes"/>
      <point x="382" y="-14"/>
      <point x="354" y="-14"/>
      <point x="344" y="-26" type="qcurve" smooth="yes"/>
      <point x="334" y="-39"/>
      <point x="334" y="-64"/>
      <point x="338" y="-71" type="qcurve" smooth="yes"/>
      <point x="343" y="-80"/>
      <point x="352" y="-85" type="qcurve"/>
      <point x="362" y="-93"/>
      <point x="412" y="-109" type="qcurve" smooth="yes"/>
      <point x="463" y="-127"/>
      <point x="540" y="-142"/>
      <point x="573" y="-142" type="qcurve" smooth="yes"/>
      <point x="629" y="-142"/>
      <point x="688" y="-115" type="qcurve" smooth="yes"/>
      <point x="746" y="-88"/>
      <point x="774" y="-30" type="qcurve" smooth="yes"/>
      <point x="788" y="-1"/>
      <point x="813" y="95"/>
      <point x="824" y="164" type="qcurve" smooth="yes"/>
      <point x="835" y="233"/>
      <point x="847" y="327"/>
      <point x="847" y="355" type="qcurve" smooth="yes"/>
      <point x="847" y="410"/>
      <point x="826" y="436" type="qcurve" smooth="yes"/>
      <point x="806" y="462"/>
      <point x="758" y="462" type="qcurve" smooth="yes"/>
    </contour>
  </outline>
</glyph>
<glyph name="p-bopomofo" format="2">
  <advance height="1000" width="1000"/>
  <unicode hex="3106"/>
  <note>
uni3106
</note>
  <outline>
    <contour>
      <point x="648" y="-6"/>
      <point x="747" y="-91"/>
      <point x="787" y="-128" type="qcurve" smooth="yes"/>
      <point x="814" y="-153"/>
      <point x="843" y="-153"/>
      <point x="855" y="-140" type="qcurve" smooth="yes"/>
      <point x="867" y="-127"/>
      <point x="867" y="-106"/>
      <point x="861" y="-96" type="qcurve" smooth="yes"/>
      <point x="857" y="-90"/>
      <point x="816" y="-50"/>
      <point x="756" y="5"/>
      <point x="682" y="68"/>
      <point x="646" y="98" type="qcurve"/>
      <point x="691" y="143"/>
      <point x="756" y="237"/>
      <point x="776" y="288" type="qcurve" smooth="yes"/>
      <point x="817" y="390"/>
      <point x="817" y="431" type="qcurve" smooth="yes"/>
      <point x="817" y="463"/>
      <point x="774" y="491"/>
      <point x="726" y="491" type="qcurve" smooth="yes"/>
      <point x="354" y="491" type="line"/>
      <point x="432" y="687" type="line" smooth="yes"/>
      <point x="438" y="703"/>
      <point x="438" y="731"/>
      <point x="424" y="740" type="qcurve" smooth="yes"/>
      <point x="410" y="749"/>
      <point x="398" y="749" type="qcurve" smooth="yes"/>
      <point x="375" y="749"/>
      <point x="360" y="715" type="qcurve" smooth="yes"/>
      <point x="278" y="509" type="line" smooth="yes"/>
      <point x="266" y="479"/>
      <point x="266" y="461" type="qcurve" smooth="yes"/>
      <point x="266" y="416"/>
      <point x="342" y="416" type="qcurve" smooth="yes"/>
      <point x="718" y="416" type="line" smooth="yes"/>
      <point x="731" y="416"/>
      <point x="731" y="404" type="qcurve" smooth="yes"/>
      <point x="731" y="377"/>
      <point x="696" y="301" type="qcurve" smooth="yes"/>
      <point x="662" y="227"/>
      <point x="583" y="148" type="qcurve"/>
      <point x="547" y="177"/>
      <point x="464" y="240"/>
      <point x="416" y="275" type="qcurve" smooth="yes"/>
      <point x="321" y="344"/>
      <point x="308" y="350" type="qcurve" smooth="yes"/>
      <point x="295" y="357"/>
      <point x="282" y="357" type="qcurve" smooth="yes"/>
      <point x="270" y="357"/>
      <point x="249" y="334"/>
      <point x="249" y="321" type="qcurve" smooth="yes"/>
      <point x="249" y="301"/>
      <point x="272" y="284" type="qcurve" smooth="yes"/>
      <point x="324" y="250"/>
      <point x="448" y="156"/>
      <point x="523" y="96" type="qcurve"/>
      <point x="379" y="-13"/>
      <point x="185" y="-63" type="qcurve" smooth="yes"/>
      <point x="156" y="-70"/>
      <point x="131" y="-89"/>
      <point x="131" y="-106" type="qcurve" smooth="yes"/>
      <point x="131" y="-147"/>
      <point x="164" y="-147" type="qcurve" smooth="yes"/>
      <point x="200" y="-147"/>
      <point x="338" y="-97" type="qcurve" smooth="yes"/>
      <point x="474" y="-48"/>
      <point x="587" y="44" type="qcurve"/>
    </contour>
  </outline>
</glyph>
<glyph name="s.alt" format="2">
  <advance width="384"/>
  <outline>
    <contour>
      <point x="44" y="0" type="line"/>
      <point x="195" y="0" type="line" smooth="yes"/>
      <point x="273" y="0"/>
      <point x="340" y="41"/>
      <point x="340" y="127" type="curve" smooth="yes"/>
      <point x="340" y="177"/>
      <point x="311" y="211"/>
      <point x="250" y="242" type="curve" smooth="yes"/>
      <point x="199" y="267" type="line" smooth="yes"/>
      <point x="177" y="279"/>
      <point x="169" y="287"/>
      <point x="169" y="298" type="curve" smooth="yes"/>
      <point x="169" y="311"/>
      <point x="180" y="318"/>
      <point x="196" y="318" type="curve" smooth="yes"/>
      <point x="318" y="318" type="line"/>
      <point x="318" y="416" type="line"/>
      <point x="197" y="416" type="line" smooth="yes"/>
      <point x="93" y="416"/>
      <point x="45" y="366"/>
      <point x="45" y="297" type="curve" smooth="yes"/>
      <point x="45" y="241"/>
      <point x="78" y="207"/>
      <point x="138" y="178" type="curve" smooth="yes"/>
      <point x="179" y="158" type="line" smooth="yes"/>
      <point x="211" y="142"/>
      <point x="217" y="134"/>
      <point x="217" y="123" type="curve" smooth="yes"/>
      <point x="217" y="107"/>
      <point x="204" y="98"/>
      <point x="179" y="98" type="curve" smooth="yes"/>
      <point x="44" y="98" type="line"/>
    </contour>
  </outline>
</glyph>
